<?xml version="1.0" encoding="iso-8859-1"?>
<!-- Generator: Adobe Illustrator 19.0.0, SVG Export Plug-In . SVG Version: 6.00 Build 0)  -->
<svg version="1.1" id="Layer_1" xmlns="http://www.w3.org/2000/svg" xmlns:xlink="http://www.w3.org/1999/xlink" x="0px" y="0px"
	 viewBox="0 0 512 512" style="enable-background:new 0 0 512 512;" xml:space="preserve">
<rect x="256" y="264.808" style="fill:#FE633E;" width="256" height="196.211"/>
<polygon style="fill:#DFDFE2;" points="383.007,143.219 128.982,143.219 120.947,143.219 23.771,143.219 0,143.219 0,461.014 
	512,461.014 512,143.219 "/>
<rect x="255.979" y="143.224" style="fill:#D7D6D9;" width="256.021" height="317.795"/>
<rect x="377.135" y="205.26" style="fill:#57565C;" width="72.098" height="31.347"/>
<rect y="264.808" style="fill:#FE9379;" width="512" height="196.211"/>
<path style="fill:#57565C;" d="M256,209.648c-50.988,0-92.47,41.481-92.47,92.469s41.481,92.47,92.47,92.47
	c50.988,0,92.469-41.481,92.469-92.47C348.469,251.13,306.988,209.648,256,209.648z"/>
<rect x="412.682" y="205.26" style="fill:#3E3D43;" width="36.551" height="31.347"/>
<polyline style="fill:#57565C;" points="383.007,143.219 340.689,50.986 171.301,50.986 128.982,143.219 "/>
<rect x="255.979" y="264.798" style="fill:#FE633E;" width="256.021" height="196.221"/>
<g>
	<path style="fill:#3E3D43;" d="M348.473,302.122c0,50.981-41.482,92.463-92.473,92.463c-0.01,0-0.01,0-0.021,0V209.648
		c0.01,0,0.01,0,0.021,0c37.721,0,70.228,22.695,84.595,55.15C345.663,276.219,348.473,288.852,348.473,302.122z"/>
	<polyline style="fill:#3E3D43;" points="255.979,143.235 255.979,50.981 340.689,50.981 383.007,143.224 	"/>
</g>
<g>
</g>
<g>
</g>
<g>
</g>
<g>
</g>
<g>
</g>
<g>
</g>
<g>
</g>
<g>
</g>
<g>
</g>
<g>
</g>
<g>
</g>
<g>
</g>
<g>
</g>
<g>
</g>
<g>
</g>
</svg>
